<svg width="500" height="500" viewBox="0 0 500 500" fill="none" xmlns="http://www.w3.org/2000/svg">
<g clip-path="url(#clip0_2075_3395)">
<path d="M182.052 334.812C165.346 409.988 131.935 480.987 117.318 507.089L104.788 523.795L330.315 526.927C342.496 528.319 366.858 505.418 366.858 402.679C366.858 274.254 316.741 250.239 289.595 216.828C267.877 190.099 274.281 151.398 280.198 135.388L261.404 103.021L214.419 108.241L206.066 122.859L208.155 143.741C224.86 157.105 228.341 201.515 227.993 222.049C219.64 228.314 198.758 259.637 182.052 334.812Z" fill="#FFE100"/>
<path d="M264.862 101.013L283.656 133.38L284.602 135.009L283.949 136.775C281.153 144.343 278.172 157.518 278.532 171.989C278.892 186.449 282.574 201.845 292.699 214.307C299.358 222.502 307.295 229.973 316.018 239.147C324.63 248.204 333.655 258.586 341.826 272.048C358.214 299.048 370.858 337.92 370.858 402.679C370.858 454.281 364.752 486.292 356.85 505.383C352.897 514.935 348.409 521.455 343.822 525.537C339.312 529.55 334.51 531.347 330.098 530.924L260.314 529.954C227.174 510.074 211.277 495.452 265.204 510.099C350.86 533.363 284.151 251.896 240.089 108.254L254.046 99.8135L260.962 99.0459L263.554 98.7568L264.862 101.013Z" fill="#EAB534"/>
<ellipse cx="217.364" cy="373.706" rx="18.3091" ry="31.7998" transform="rotate(2.87344 217.364 373.706)" fill="#211E1E"/>
<ellipse cx="291.564" cy="373.706" rx="18.3091" ry="31.7998" transform="rotate(2.87344 291.564 373.706)" fill="#211E1E"/>
<ellipse cx="208.995" cy="363.383" rx="6.33569" ry="9.84058" fill="#D9D9D9"/>
<ellipse cx="285.136" cy="363.383" rx="6.33569" ry="9.84058" fill="#D9D9D9"/>
<path d="M204.585 330.437C209.228 325.794 221.301 319.293 232.445 330.437" stroke="black" stroke-width="5.02819" stroke-linecap="round"/>
<path d="M276.758 330.437C281.402 325.794 293.475 319.293 304.619 330.437" stroke="black" stroke-width="5.02819" stroke-linecap="round"/>
<path d="M232.848 224.214L219.921 230.79L228.116 206.029L228.444 183.432L217.789 165.365L208.987 136.874L215.936 105.604L262.262 96.8018L283.341 124.366L279.171 161.195L283.08 208.164C283.08 208.164 274.481 205.774 269.848 216.373C269.848 216.373 241.438 209.193 232.848 224.214Z" fill="#CFC839"/>
<path d="M247.143 129.909L208.817 124.866L219.911 108.729L243.109 107.72L268.323 99.6514L281.435 137.978L255.212 149.072L247.143 129.909Z" fill="#5F362C"/>
<path d="M222.456 432.456C222.164 434.761 222.391 437.108 223.124 439.364C223.857 441.62 225.082 443.741 226.729 445.605C228.376 447.47 230.413 449.041 232.723 450.23C235.032 451.419 237.571 452.202 240.192 452.535C242.813 452.867 245.466 452.742 248 452.168C250.534 451.593 252.898 450.58 254.958 449.186C257.019 447.791 258.734 446.044 260.007 444.042C261.281 442.04 262.086 439.824 262.379 437.52" stroke="black" stroke-width="7.4" stroke-linecap="round"/>
<path d="M284.603 135.01L289.011 136.64L289.779 134.564L288.667 132.65L284.603 135.01ZM283.949 136.777L279.541 135.147L279.541 135.148L283.949 136.777ZM278.532 171.991L273.834 172.108V172.108L278.532 171.991ZM292.699 214.308L289.051 217.272L289.052 217.272L292.699 214.308ZM316.019 239.149L319.425 235.91H319.425L316.019 239.149ZM341.826 272.049L345.844 269.611V269.611L341.826 272.049ZM370.858 402.68H375.558H370.858ZM356.851 505.384L361.193 507.182L361.193 507.182L356.851 505.384ZM343.822 525.539L346.946 529.05L346.947 529.05L343.822 525.539ZM330.098 530.925L330.546 526.247L330.355 526.228L330.163 526.226L330.098 530.925ZM260.314 529.956L257.897 533.986L258.983 534.638L260.249 534.655L260.314 529.956ZM253.623 525.863L256.113 521.876L255 521.181L253.688 521.163L253.623 525.863ZM104.788 523.795L101.028 520.975L95.4845 528.367L104.723 528.495L104.788 523.795ZM117.317 507.09L121.077 509.91L121.265 509.66L121.418 509.387L117.317 507.09ZM182.052 334.813L177.464 333.793L182.052 334.813ZM227.992 222.05L230.812 225.81L232.653 224.43L232.692 222.13L227.992 222.05ZM209.771 145.17L213.042 141.796L212.998 141.753L212.953 141.712L209.771 145.17ZM208.066 143.742L203.392 144.234L203.605 146.256L205.225 147.485L208.066 143.742ZM205.865 122.86L201.839 120.435L201.026 121.785L201.191 123.353L205.865 122.86ZM209.787 116.347L213.813 118.772L213.841 118.726L213.868 118.679L209.787 116.347ZM214.419 108.243L213.9 103.571L211.524 103.835L210.338 105.911L214.419 108.243ZM245.893 104.745L246.412 109.416L247.439 109.302L248.324 108.767L245.893 104.745ZM254.046 99.8149L253.527 95.1436L252.499 95.2578L251.614 95.793L254.046 99.8149ZM263.554 98.7593L267.618 96.3993L266.08 93.7499L263.035 94.088L263.554 98.7593ZM284.603 135.01L280.194 133.38L279.541 135.147L283.949 136.777L288.357 138.407L289.011 136.64L284.603 135.01ZM283.949 136.777L279.541 135.148C276.554 143.229 273.457 156.996 273.834 172.108L278.532 171.991L283.231 171.874C282.886 158.043 285.751 145.46 288.358 138.406L283.949 136.777ZM278.532 171.991L273.834 172.108C274.21 187.223 278.065 203.75 289.051 217.272L292.699 214.308L296.347 211.344C287.084 199.944 283.575 185.677 283.231 171.874L278.532 171.991ZM292.699 214.308L289.052 217.272C295.86 225.652 304.136 233.473 312.612 242.388L316.019 239.149L319.425 235.91C310.455 226.477 302.855 219.354 296.347 211.344L292.699 214.308ZM316.019 239.149L312.612 242.388C321.112 251.326 329.884 261.432 337.808 274.488L341.826 272.049L345.844 269.611C337.427 255.743 328.148 245.084 319.425 235.91L316.019 239.149ZM341.826 272.049L337.808 274.488C353.649 300.587 366.158 338.564 366.158 402.68H370.858H375.558C375.558 337.28 362.779 297.512 345.844 269.611L341.826 272.049ZM370.858 402.68H366.158C366.158 454.009 360.071 485.315 352.508 503.587L356.851 505.384L361.193 507.182C369.434 487.272 375.558 454.555 375.558 402.68H370.858ZM356.851 505.384L352.508 503.587C348.727 512.721 344.591 518.563 340.698 522.027L343.822 525.539L346.947 529.05C352.228 524.351 357.066 517.152 361.193 507.182L356.851 505.384ZM343.822 525.539L340.698 522.027C336.872 525.432 333.311 526.512 330.546 526.247L330.098 530.925L329.649 535.604C335.708 536.184 341.753 533.671 346.946 529.05L343.822 525.539ZM330.098 530.925L330.163 526.226L260.38 525.256L260.314 529.956L260.249 534.655L330.032 535.625L330.098 530.925ZM260.314 529.956L262.732 525.925C260.433 524.546 258.221 523.193 256.113 521.876L253.623 525.863L251.134 529.849C253.293 531.198 255.553 532.58 257.897 533.986L260.314 529.956ZM253.623 525.863L253.688 521.163L104.853 519.096L104.788 523.795L104.723 528.495L253.558 530.562L253.623 525.863ZM104.788 523.795L108.548 526.615L121.077 509.91L117.317 507.09L113.557 504.27L101.028 520.975L104.788 523.795ZM117.317 507.09L121.418 509.387C136.197 482.996 169.811 411.565 186.64 335.833L182.052 334.813L177.464 333.793C160.882 408.413 127.672 478.98 113.217 504.794L117.317 507.09ZM182.052 334.813L186.64 335.833C194.935 298.503 204.235 272.212 212.418 254.568C216.51 245.745 220.304 239.124 223.526 234.383C226.802 229.564 229.33 226.922 230.812 225.81L227.992 222.05L225.172 218.29C222.478 220.311 219.263 223.934 215.752 229.099C212.188 234.343 208.151 241.426 203.89 250.613C195.367 268.992 185.874 295.949 177.464 333.793L182.052 334.813ZM227.992 222.05L232.692 222.13C232.864 211.961 232.124 196.141 229.376 180.901C228.002 173.276 226.104 165.682 223.511 158.964C220.937 152.297 217.557 146.174 213.042 141.796L209.771 145.17L206.499 148.544C209.642 151.592 212.41 156.311 214.742 162.349C217.053 168.336 218.817 175.311 220.125 182.568C222.744 197.091 223.457 212.285 223.293 221.971L227.992 222.05ZM209.771 145.17L212.953 141.712C212.298 141.109 211.617 140.536 210.908 139.998L208.066 143.742L205.225 147.485C205.683 147.833 206.137 148.214 206.588 148.629L209.771 145.17ZM208.066 143.742L212.741 143.249L210.539 122.367L205.865 122.86L201.191 123.353L203.392 144.234L208.066 143.742ZM205.865 122.86L209.892 125.284L213.813 118.772L209.787 116.347L205.761 113.923L201.839 120.435L205.865 122.86ZM209.787 116.347L213.868 118.679L218.5 110.575L214.419 108.243L210.338 105.911L205.707 114.015L209.787 116.347ZM214.419 108.243L214.938 112.914L246.412 109.416L245.893 104.745L245.373 100.073L213.9 103.571L214.419 108.243ZM245.893 104.745L248.324 108.767L256.478 103.837L254.046 99.8149L251.614 95.793L243.461 100.723L245.893 104.745ZM254.046 99.8149L254.565 104.486L264.072 103.431L263.554 98.7593L263.035 94.088L253.527 95.1436L254.046 99.8149ZM263.554 98.7593L259.489 101.119L280.538 137.37L284.603 135.01L288.667 132.65L267.618 96.3993L263.554 98.7593Z" fill="#211E1E"/>
<ellipse cx="187.138" cy="420.289" rx="22.397" ry="12.2997" transform="rotate(4.62499 187.138 420.289)" fill="#F78C68" fill-opacity="0.25"/>
<ellipse cx="299.095" cy="430.36" rx="22.397" ry="12.2997" transform="rotate(4.62499 299.095 430.36)" fill="#F78C68" fill-opacity="0.25"/>
</g>
<defs>
<clipPath id="clip0_2075_3395">
<rect width="500" height="500" fill="white"/>
</clipPath>
</defs>
</svg>
